<?xml version="1.0" encoding="iso-8859-1"?>
<!-- Generator: Adobe Illustrator 24.1.2, SVG Export Plug-In . SVG Version: 6.00 Build 0)  -->
<svg version="1.1" xmlns="http://www.w3.org/2000/svg" xmlns:xlink="http://www.w3.org/1999/xlink" x="0px" y="0px"
	 viewBox="0 0 48 48" style="enable-background:new 0 0 48 48;" xml:space="preserve">
<g id="Layer_10" style="display:none;">
	<g style="display:inline;opacity:0.05;">
		<circle style="fill:#FFFFFF;" cx="24" cy="24" r="19.5"/>
		<path d="M24,5c10.477,0,19,8.523,19,19s-8.523,19-19,19S5,34.477,5,24S13.523,5,24,5 M24,4C12.954,4,4,12.954,4,24s8.954,20,20,20
			s20-8.954,20-20S35.046,4,24,4L24,4z"/>
	</g>
	<g style="display:inline;opacity:0.05;">
		<rect x="6.5" y="6.5" style="fill:#FFFFFF;" width="35" height="35"/>
		<path d="M41,7v34H7V7H41 M42,6H6v36h36V6L42,6z"/>
	</g>
</g>
<g id="filled">
</g>
<g id="outlined">
</g>
<g id="rounded">
</g>
<g id="two_x5F_tone">
</g>
<g id="sharp">
</g>
<g id="win10">
</g>
<g id="ios_x5F_out">
</g>
<g id="ios_x5F_filled">
</g>
<g id="color">
	<path style="fill:#FF8F00;" d="M45,18.816C42.334,5.695,34.134,4,27.994,4C21.49,4,11.418,7.589,6.645,19.211
		c-4.88,11.882,1.313,24.61,15.731,24.61c9.94,0,18.351-7.773,18.351-16.592c0-5.302-2.776-7.662-2.776-7.662
		s0.101,4.322-0.586,5.661c-0.707-1.806-1.697-3.742-3.211-5.02c-0.162,2.962-1.151,11.209-9.764,8.785c0,0,1.261,4.635,8.573,4.635
		c0,0-2.222,3.409-7.392,3.409s-9.663-3.699-9.372-10.307c0.283-6.411,6.908-12.782,14.017-12.782c3.232,0,6.241,1.542,7.978,3.419
		C38.638,15.295,35,10,28.914,9.019C28.914,9.019,39.075,6.94,45,18.816z"/>
</g>
</svg>